<svg width="379" height="286" viewBox="0 0 379 286" fill="none" xmlns="http://www.w3.org/2000/svg">
<path d="M372.617 97.5426C380.623 105.549 380.623 118.529 372.617 126.536L227.157 271.995C219.151 280.002 206.17 280.002 198.164 271.995L106.626 180.457C98.6201 172.451 98.6201 159.471 106.626 151.464L252.086 6.00463C260.092 -2.00155 273.073 -2.00154 281.079 6.00464L372.617 97.5426Z" fill="#4A6DFF"/>
<path d="M239.014 179.948C239.195 179.946 239.362 180.019 239.515 180.168C239.82 180.465 239.991 180.84 240.027 181.292C240.063 181.684 239.946 182.018 239.678 182.293L230.078 192.15C229.274 192.975 228.312 193.259 227.192 193.002L216.03 190.796L218.619 201.805C218.875 202.948 218.616 203.917 217.842 204.712L208.197 214.615C207.929 214.89 207.599 215.045 207.207 215.08C206.815 215.055 206.481 214.909 206.206 214.641L206.068 214.507C205.915 214.358 205.838 214.193 205.835 214.012L200.208 188.787L177.84 184.601C177.628 184.573 177.416 184.456 177.202 184.247C176.927 183.979 176.787 183.664 176.782 183.302C176.776 182.88 176.908 182.531 177.176 182.256L186.821 172.353C187.595 171.558 188.602 171.289 189.843 171.544L199.194 173.684L196.985 164.027C196.918 163.545 196.897 163.078 196.921 162.625C196.975 162.142 197.255 161.64 197.761 161.121L207.362 151.263C207.63 150.988 207.96 150.863 208.353 150.888C208.745 150.853 209.078 150.969 209.353 151.237L209.491 151.371C209.644 151.52 209.721 151.685 209.724 151.866L214.557 175.246L239.014 179.948ZM245.412 151.64C246.665 152.86 248.03 153.386 249.506 153.215C251.012 153.014 252.465 152.196 253.864 150.759C255.114 149.475 255.823 148.319 255.991 147.291C256.158 146.263 256.022 145.119 255.583 143.857C255.176 142.686 255.299 141.764 255.954 141.091L265.6 131.188C265.868 130.913 266.198 130.788 266.59 130.813C266.982 130.778 267.316 130.894 267.591 131.162C269.455 132.978 270.679 135.391 271.261 138.401C271.814 141.38 271.435 144.734 270.127 148.463C268.817 152.131 266.376 155.799 262.804 159.467C259.619 162.737 256.287 165.18 252.808 166.795C249.328 168.349 245.835 168.878 242.329 168.381C238.792 167.854 235.48 166.088 232.392 163.081L226.983 157.811C223.895 154.805 222.057 151.555 221.468 148.063C220.849 144.541 221.285 141.035 222.778 137.546C224.27 133.996 226.609 130.586 229.794 127.315C233.367 123.648 236.984 121.126 240.647 119.75C244.309 118.314 247.652 117.847 250.676 118.351C253.669 118.824 256.098 119.969 257.963 121.785C258.238 122.053 258.378 122.398 258.384 122.82C258.388 123.182 258.257 123.501 257.989 123.776L248.344 133.679C247.689 134.351 246.77 134.499 245.589 134.122C244.316 133.717 243.168 133.611 242.145 133.806C241.121 134 239.985 134.739 238.734 136.023C237.335 137.46 236.555 138.933 236.394 140.444C236.262 141.924 236.823 143.274 238.077 144.495L245.412 151.64ZM296.566 85.1774C296.894 84.8411 297.299 84.6699 297.782 84.6635C298.264 84.6571 298.674 84.8177 299.01 85.1452L303.87 89.8786C308.516 94.4036 310.421 99.3569 309.587 104.739C308.752 110.06 305.804 115.319 300.743 120.515C295.682 125.711 290.488 128.811 285.161 129.817C279.833 130.762 274.815 128.942 270.108 124.358L264.698 119.089C261.581 116.052 259.742 112.772 259.183 109.25C258.593 105.697 259.074 102.145 260.627 98.5948C262.179 95.0442 264.548 91.6337 267.733 88.3632C271.544 84.451 275.326 81.8516 279.081 80.565C282.836 79.2785 286.074 78.8587 288.795 79.3056C291.546 79.7219 293.426 80.4213 294.435 81.4037C294.71 81.6716 294.85 82.0168 294.856 82.4391C294.861 82.8011 294.729 83.1197 294.461 83.3947L284.369 93.7562C283.774 94.3675 283.174 94.6469 282.57 94.5945C280.455 94.381 278.489 95.2065 276.673 97.0709C275.304 98.4769 274.479 99.9662 274.198 101.539C273.947 103.081 274.325 104.343 275.334 105.326L283.128 112.917C284.35 114.108 285.76 114.587 287.356 114.355C288.921 114.093 290.404 113.244 291.803 111.807C293.649 109.912 294.682 108.209 294.904 106.697C295.124 105.125 294.806 103.892 293.95 102.999L291.181 105.841C290.854 106.177 290.449 106.349 289.966 106.355C289.483 106.361 289.074 106.201 288.738 105.873L283.649 100.917C283.312 100.589 283.141 100.184 283.135 99.7013C283.128 99.2187 283.289 98.8092 283.617 98.473L296.566 85.1774Z" fill="white"/>
<g filter="url(#filter0_d_1_4)">
<path d="M275.995 97.5426C284.002 105.549 284.002 118.529 275.995 126.536L130.536 271.995C122.529 280.002 109.549 280.002 101.543 271.995L10.0046 180.457C1.99845 172.451 1.99846 159.471 10.0046 151.464L155.464 6.00463C163.471 -2.00155 176.451 -2.00154 184.457 6.00464L275.995 97.5426Z" fill="#2EB9FF"/>
</g>
<path d="M135.014 174.948C135.195 174.946 135.362 175.019 135.515 175.168C135.82 175.465 135.991 175.84 136.027 176.292C136.063 176.684 135.946 177.018 135.678 177.293L126.078 187.15C125.274 187.975 124.312 188.259 123.192 188.002L112.03 185.796L114.619 196.805C114.875 197.948 114.616 198.917 113.842 199.712L104.197 209.615C103.929 209.89 103.599 210.045 103.207 210.08C102.815 210.055 102.481 209.909 102.206 209.641L102.068 209.507C101.915 209.358 101.838 209.193 101.835 209.012L96.2078 183.787L73.84 179.601C73.6285 179.573 73.4157 179.456 73.2018 179.247C72.9267 178.979 72.7868 178.664 72.782 178.302C72.7764 177.88 72.9076 177.531 73.1755 177.256L82.821 167.353C83.595 166.558 84.6022 166.289 85.8426 166.544L95.1941 168.684L92.985 159.027C92.9183 158.546 92.8971 158.078 92.9213 157.625C92.9753 157.142 93.2553 156.64 93.7614 156.121L103.362 146.264C103.63 145.988 103.96 145.863 104.353 145.888C104.745 145.853 105.078 145.969 105.353 146.237L105.491 146.371C105.644 146.52 105.721 146.685 105.724 146.866L110.557 170.246L135.014 174.948ZM141.412 146.64C142.665 147.86 144.03 148.386 145.506 148.215C147.012 148.014 148.465 147.196 149.864 145.759C151.114 144.475 151.823 143.32 151.991 142.291C152.158 141.263 152.022 140.119 151.583 138.857C151.176 137.686 151.299 136.764 151.954 136.091L161.6 126.189C161.868 125.913 162.198 125.788 162.59 125.813C162.982 125.778 163.316 125.894 163.591 126.162C165.455 127.978 166.679 130.391 167.261 133.401C167.814 136.38 167.435 139.735 166.127 143.463C164.817 147.131 162.376 150.799 158.804 154.467C155.619 157.737 152.287 160.18 148.808 161.795C145.328 163.349 141.835 163.878 138.329 163.381C134.792 162.854 131.48 161.088 128.392 158.081L122.983 152.812C119.895 149.805 118.057 146.555 117.468 143.063C116.849 139.541 117.285 136.035 118.778 132.546C120.27 128.996 122.609 125.586 125.794 122.315C129.367 118.648 132.984 116.126 136.647 114.75C140.309 113.314 143.652 112.847 146.676 113.351C149.669 113.824 152.098 114.969 153.963 116.785C154.238 117.053 154.378 117.398 154.384 117.82C154.388 118.182 154.257 118.501 153.989 118.776L144.344 128.679C143.689 129.351 142.77 129.499 141.589 129.122C140.316 128.717 139.168 128.611 138.145 128.806C137.121 129 135.985 129.739 134.734 131.023C133.335 132.46 132.555 133.933 132.394 135.444C132.262 136.924 132.823 138.275 134.077 139.495L141.412 146.64ZM192.566 80.1774C192.894 79.8412 193.299 79.6699 193.782 79.6636C194.264 79.6572 194.674 79.8178 195.01 80.1452L199.87 84.8786C204.516 89.4036 206.421 94.357 205.587 99.7387C204.752 105.06 201.804 110.319 196.743 115.515C191.682 120.711 186.488 123.812 181.161 124.817C175.833 125.762 170.815 123.943 166.108 119.358L160.698 114.089C157.581 111.052 155.742 107.773 155.183 104.25C154.593 100.697 155.074 97.1455 156.627 93.5949C158.179 90.0443 160.548 86.6337 163.733 83.3633C167.544 79.451 171.326 76.8516 175.081 75.5651C178.836 74.2785 182.074 73.8587 184.795 74.3056C187.546 74.722 189.426 75.4214 190.435 76.4038C190.71 76.6717 190.85 77.0168 190.856 77.4392C190.861 77.8012 190.729 78.1197 190.461 78.3948L180.369 88.7562C179.774 89.3675 179.174 89.647 178.57 89.5946C176.455 89.3811 174.489 90.2065 172.673 92.071C171.304 93.477 170.479 94.9663 170.198 96.539C169.947 98.0811 170.325 99.3433 171.334 100.326L179.128 107.917C180.35 109.108 181.76 109.587 183.356 109.355C184.921 109.093 186.404 108.244 187.803 106.807C189.649 104.912 190.682 103.209 190.904 101.697C191.124 100.125 190.806 98.8925 189.95 97.9986L187.181 100.841C186.854 101.177 186.449 101.349 185.966 101.355C185.483 101.361 185.074 101.201 184.738 100.873L179.649 95.9166C179.312 95.5891 179.141 95.1841 179.135 94.7014C179.128 94.2187 179.289 93.8093 179.617 93.4731L192.566 80.1774Z" fill="white"/>
<defs>
<filter id="filter0_d_1_4" x="0" y="0" width="286" height="286" filterUnits="userSpaceOnUse" color-interpolation-filters="sRGB">
<feFlood flood-opacity="0" result="BackgroundImageFix"/>
<feColorMatrix in="SourceAlpha" type="matrix" values="0 0 0 0 0 0 0 0 0 0 0 0 0 0 0 0 0 0 127 0" result="hardAlpha"/>
<feOffset dy="4"/>
<feGaussianBlur stdDeviation="2"/>
<feComposite in2="hardAlpha" operator="out"/>
<feColorMatrix type="matrix" values="0 0 0 0 0 0 0 0 0 0 0 0 0 0 0 0 0 0 0.25 0"/>
<feBlend mode="normal" in2="BackgroundImageFix" result="effect1_dropShadow_1_4"/>
<feBlend mode="normal" in="SourceGraphic" in2="effect1_dropShadow_1_4" result="shape"/>
</filter>
</defs>
</svg>

